<svg xmlns="http://www.w3.org/2000/svg" fill="none" viewBox="0 0 71 70">
  <path fill="#FF6C0C" d="M53.802 15.942c1.946 0 3.503 1.555 3.503 3.422 0 1.945-1.557 3.5-3.503 3.5a3.487 3.487 0 0 1-3.503-3.5c0-1.867 1.557-3.422 3.503-3.422zm-1.48 11.435c0 1.867-1.479 3.345-3.27 3.345-1.79 0-3.27-1.478-3.27-3.345 0-1.79 1.48-3.267 3.27-3.267 1.791 0 3.27 1.4 3.27 3.267zM46.95 10.419c1.791 0 3.193 1.478 3.193 3.19 0 1.71-1.402 3.11-3.192 3.11-1.79 0-3.192-1.4-3.192-3.11 0-1.712 1.401-3.19 3.192-3.19zm-1.167 10.657a3.122 3.122 0 0 1-3.114 3.111 3.122 3.122 0 0 1-3.114-3.111 3.122 3.122 0 0 1 3.114-3.112c1.79.078 3.114 1.4 3.114 3.112zm-7.24-13.38c1.713 0 2.958 1.322 2.958 2.956 0 1.711-1.323 2.956-2.958 2.956a2.956 2.956 0 0 1-2.958-2.956c-.078-1.634 1.323-2.956 2.958-2.956zM36.908 18.82a2.79 2.79 0 0 1-2.803 2.8 2.79 2.79 0 0 1-2.802-2.8 2.79 2.79 0 0 1 2.802-2.8 2.79 2.79 0 0 1 2.803 2.8zM29.59 8.007c1.48 0 2.725 1.167 2.725 2.645s-1.246 2.723-2.725 2.723c-1.48 0-2.725-1.245-2.725-2.723.078-1.478 1.246-2.645 2.725-2.645zm-8.408 3.19c1.402 0 2.57 1.166 2.57 2.567 0 1.4-1.09 2.489-2.57 2.489-1.401 0-2.569-1.09-2.569-2.49 0-1.4 1.168-2.566 2.57-2.566zm-2.024 13.768a2.341 2.341 0 0 1 2.335 2.334c0 1.322-1.09 2.334-2.335 2.334-1.324 0-2.414-1.09-2.414-2.334 0-1.245 1.09-2.334 2.414-2.334zM6.39 35.934c0-1.012.779-1.867 1.79-1.867 1.013 0 1.791.777 1.791 1.867 0 1.01-.778 1.789-1.79 1.789a1.761 1.761 0 0 1-1.79-1.79zM9.738 46.28a1.727 1.727 0 0 1-1.713-1.712c0-.933.779-1.711 1.713-1.711s1.713.778 1.713 1.711c0 1.011-.779 1.711-1.713 1.711zm.078-17.114a2.092 2.092 0 0 1-2.102-2.1c0-1.167.934-2.1 2.102-2.1 1.168 0 2.102.933 2.102 2.1 0 1.166-.934 2.1-2.102 2.1zm4.515-11.98a2.258 2.258 0 0 1 2.258 2.256c0 1.167-1.012 2.256-2.258 2.256-1.245 0-2.18-1.011-2.18-2.256-.078-1.244.934-2.256 2.18-2.256zm-.077 36.561c-.779 0-1.48-.7-1.48-1.478s.623-1.4 1.48-1.4c.856 0 1.479.622 1.479 1.4 0 .856-.701 1.478-1.48 1.478zm.622-17.813c0-1.09.857-1.945 1.947-1.945s1.946.933 1.946 1.945c0 1.089-.856 1.944-1.946 1.944-1.09 0-1.947-.933-1.947-1.944zm2.647 8.556c0-1.011.779-1.711 1.713-1.711s1.635.778 1.635 1.711c0 .934-.779 1.634-1.635 1.634-1.012 0-1.713-.7-1.713-1.634zm3.581 14.858c-.7 0-1.323-.622-1.323-1.322 0-.7.623-1.323 1.323-1.323.779 0 1.324.622 1.324 1.322 0 .778-.545 1.323-1.324 1.323zm4.282-40.917c1.48 0 2.725 1.167 2.725 2.645a2.707 2.707 0 0 1-2.725 2.722c-1.48 0-2.647-1.166-2.647-2.722 0-1.478 1.246-2.645 2.647-2.645zm.078 33.76c-.856 0-1.557-.622-1.557-1.555 0-.856.7-1.556 1.557-1.556.856 0 1.557.7 1.557 1.556 0 .933-.7 1.555-1.557 1.555zm0-14.157a2.092 2.092 0 0 1-2.102-2.1c0-1.167.934-2.1 2.102-2.1 1.168 0 2.102.933 2.102 2.1 0 1.166-.934 2.1-2.102 2.1zm4.126 24.27c-.7 0-1.168-.545-1.168-1.167s.467-1.167 1.168-1.167c.623 0 1.168.545 1.168 1.167s-.545 1.167-1.168 1.167zm.156-17.269a1.727 1.727 0 0 1-1.713-1.711c0-1.012.778-1.712 1.713-1.712.934 0 1.712.778 1.712 1.712 0 .933-.778 1.71-1.712 1.71zm0-14.002a2.458 2.458 0 0 1-2.492-2.49c0-1.4 1.09-2.489 2.492-2.489a2.458 2.458 0 0 1 2.49 2.49c0 1.322-1.089 2.489-2.49 2.489zm4.36 23.259c-.779 0-1.324-.545-1.324-1.323 0-.778.545-1.4 1.324-1.4.7 0 1.323.622 1.323 1.4 0 .778-.623 1.323-1.323 1.323zm1.323-25.826a2.956 2.956 0 0 1 2.958-2.956 2.956 2.956 0 0 1 2.959 2.956c0 1.633-1.324 2.878-2.959 2.878-1.635.078-2.958-1.245-2.958-2.878zm3.425 33.682c-.622 0-1.167-.544-1.167-1.167 0-.622.545-1.166 1.167-1.166.623 0 1.168.466 1.168 1.166s-.467 1.167-1.168 1.167zm3.893-10.345c-.623 0-1.168-.467-1.168-1.09 0-.622.545-1.166 1.168-1.166.623 0 1.168.544 1.168 1.166-.078.545-.545 1.09-1.168 1.09zm-.077-12.68c-1.791 0-3.27-1.4-3.27-3.19 0-1.789 1.4-3.267 3.27-3.267 1.79 0 3.191 1.478 3.191 3.268.078 1.789-1.401 3.189-3.192 3.189zm4.359 19.992c-.545 0-1.012-.467-1.012-1.09a1.03 1.03 0 0 1 1.012-1.01c.623 0 1.012.466 1.012 1.01.078.623-.39 1.09-1.012 1.09zm6.929-5.912c-.545 0-.935-.39-.935-.934 0-.467.39-.855.935-.855.467 0 .856.388.856.855 0 .467-.39.934-.856.934zM51.31 39.512a3.653 3.653 0 0 1-3.659-3.656 3.653 3.653 0 0 1 3.66-3.656 3.653 3.653 0 0 1 3.658 3.656c-.077 2.022-1.634 3.656-3.659 3.656zm3.348-12.446a3.653 3.653 0 0 1 3.66-3.657 3.653 3.653 0 0 1 3.658 3.657 3.653 3.653 0 0 1-3.659 3.656c-1.946 0-3.659-1.634-3.659-3.657zM59.952 39.9c-2.18 0-4.049-1.788-4.049-4.044 0-2.178 1.869-4.045 4.049-4.045A4.019 4.019 0 0 1 64 35.856c0 2.256-1.868 4.045-4.048 4.045z"/>
</svg>